<svg xmlns="http://www.w3.org/2000/svg" width="11.312" height="10.5" viewBox="0 0 11.312 10.5">
  <defs>
    <style>
      .cls-1 {
        fill-rule: evenodd;
      }
    </style>
  </defs>
  <path id="bullet.svg" class="cls-1" d="M170.257,3394.38l-10.487-4.85a0.407,0.407,0,0,0-.482.12,0.394,0.394,0,0,0-.01.49l3.448,4.61-3.448,4.6a0.41,0.41,0,0,0,.009.5,0.394,0.394,0,0,0,.314.15,0.338,0.338,0,0,0,.168-0.04l10.487-4.85a0.384,0.384,0,0,0,.235-0.36A0.41,0.41,0,0,0,170.257,3394.38Z" transform="translate(-159.188 -3389.5)"/>
</svg>
